<?xml version="1.0" encoding="UTF-8" standalone="no"?>
<!DOCTYPE svg PUBLIC "-//W3C//DTD SVG 1.1//EN"
 "http://www.w3.org/Graphics/SVG/1.1/DTD/svg11.dtd">
<!-- Generated by graphviz version 2.40.1 (0)
 -->
<!-- Title: hashicorp&#45;vault Pages: 1 -->
<svg width="4880pt" height="674pt"
 viewBox="0.00 0.00 4880.10 674.00" xmlns="http://www.w3.org/2000/svg" xmlns:xlink="http://www.w3.org/1999/xlink">
<g id="graph0" class="graph" transform="scale(1 1) rotate(0) translate(4 670)">
<title>hashicorp&#45;vault</title>
<polygon fill="#ffffff" stroke="transparent" points="-4,4 -4,-670 4876.1021,-670 4876.1021,4 -4,4"/>
<!-- 0 -->
<g id="node1" class="node">
<title>0</title>
<ellipse fill="none" stroke="#000000" cx="1559.327" cy="-192" rx="147.5738" ry="18"/>
<text text-anchor="middle" x="1559.327" y="-188.3" font-family="Times,serif" font-size="14.00" fill="#000000">Service|hashicorp&#45;vault/vault</text>
</g>
<!-- 1 -->
<g id="node2" class="node">
<title>1</title>
<ellipse fill="none" stroke="#000000" cx="1798.327" cy="-648" rx="195.7654" ry="18"/>
<text text-anchor="middle" x="1798.327" y="-644.3" font-family="Times,serif" font-size="14.00" fill="#000000">ServiceAccount|hashicorp&#45;vault/builder</text>
</g>
<!-- 4 -->
<g id="node5" class="node">
<title>4</title>
<ellipse fill="none" stroke="#000000" cx="1565.327" cy="-561" rx="231.259" ry="18"/>
<text text-anchor="middle" x="1565.327" y="-557.3" font-family="Times,serif" font-size="14.00" fill="#000000">Secret|hashicorp&#45;vault/builder&#45;dockercfg&#45;k7jq8</text>
</g>
<!-- 1&#45;&gt;4 -->
<g id="edge1" class="edge">
<title>1&#45;&gt;4</title>
<path fill="none" stroke="#000000" d="M1751.4562,-630.4989C1714.1348,-616.5634 1661.7546,-597.0052 1622.065,-582.1854"/>
<polygon fill="#000000" stroke="#000000" points="1623.1144,-578.8413 1612.5219,-578.6221 1620.6658,-585.3991 1623.1144,-578.8413"/>
<text text-anchor="middle" x="1758.327" y="-600.8" font-family="Times,serif" font-size="14.00" fill="#000000">MountableSecret</text>
</g>
<!-- 5 -->
<g id="node6" class="node">
<title>5</title>
<ellipse fill="none" stroke="#000000" cx="2031.327" cy="-561" rx="217.1615" ry="18"/>
<text text-anchor="middle" x="2031.327" y="-557.3" font-family="Times,serif" font-size="14.00" fill="#000000">Secret|hashicorp&#45;vault/builder&#45;token&#45;5n4md</text>
</g>
<!-- 1&#45;&gt;5 -->
<g id="edge2" class="edge">
<title>1&#45;&gt;5</title>
<path fill="none" stroke="#000000" d="M1845.1977,-630.4989C1882.5191,-616.5634 1934.8993,-597.0052 1974.589,-582.1854"/>
<polygon fill="#000000" stroke="#000000" points="1975.9882,-585.3991 1984.1321,-578.6221 1973.5395,-578.8413 1975.9882,-585.3991"/>
<text text-anchor="middle" x="1991.327" y="-600.8" font-family="Times,serif" font-size="14.00" fill="#000000">MountableSecret</text>
</g>
<!-- 2 -->
<g id="node3" class="node">
<title>2</title>
<ellipse fill="none" stroke="#000000" cx="650.327" cy="-105" rx="194.9654" ry="18"/>
<text text-anchor="middle" x="650.327" y="-101.3" font-family="Times,serif" font-size="14.00" fill="#000000">ServiceAccount|hashicorp&#45;vault/default</text>
</g>
<!-- 7 -->
<g id="node8" class="node">
<title>7</title>
<ellipse fill="none" stroke="#000000" cx="714.327" cy="-18" rx="229.3593" ry="18"/>
<text text-anchor="middle" x="714.327" y="-14.3" font-family="Times,serif" font-size="14.00" fill="#000000">Secret|hashicorp&#45;vault/default&#45;dockercfg&#45;hgtfh</text>
</g>
<!-- 2&#45;&gt;7 -->
<g id="edge3" class="edge">
<title>2&#45;&gt;7</title>
<path fill="none" stroke="#000000" d="M663.5878,-86.9735C672.6839,-74.6085 684.8991,-58.0036 695.0647,-44.1847"/>
<polygon fill="#000000" stroke="#000000" points="697.9768,-46.1326 701.0831,-36.0034 692.3381,-41.9846 697.9768,-46.1326"/>
<text text-anchor="middle" x="748.327" y="-57.8" font-family="Times,serif" font-size="14.00" fill="#000000">MountableSecret</text>
</g>
<!-- 9 -->
<g id="node10" class="node">
<title>9</title>
<ellipse fill="none" stroke="#000000" cx="259.327" cy="-18" rx="207.9631" ry="18"/>
<text text-anchor="middle" x="259.327" y="-14.3" font-family="Times,serif" font-size="14.00" fill="#000000">Secret|hashicorp&#45;vault/default&#45;token&#45;rz2jv</text>
</g>
<!-- 2&#45;&gt;9 -->
<g id="edge4" class="edge">
<title>2&#45;&gt;9</title>
<path fill="none" stroke="#000000" d="M575.4009,-88.3285C509.5652,-73.6796 413.7999,-52.3712 344.9541,-37.0526"/>
<polygon fill="#000000" stroke="#000000" points="345.5201,-33.593 334.9986,-34.8374 343.9997,-40.4259 345.5201,-33.593"/>
<text text-anchor="middle" x="540.327" y="-57.8" font-family="Times,serif" font-size="14.00" fill="#000000">MountableSecret</text>
</g>
<!-- 3 -->
<g id="node4" class="node">
<title>3</title>
<ellipse fill="none" stroke="#000000" cx="2740.327" cy="-648" rx="202.5642" ry="18"/>
<text text-anchor="middle" x="2740.327" y="-644.3" font-family="Times,serif" font-size="14.00" fill="#000000">ServiceAccount|hashicorp&#45;vault/deployer</text>
</g>
<!-- 10 -->
<g id="node11" class="node">
<title>10</title>
<ellipse fill="none" stroke="#000000" cx="2503.327" cy="-561" rx="237.4581" ry="18"/>
<text text-anchor="middle" x="2503.327" y="-557.3" font-family="Times,serif" font-size="14.00" fill="#000000">Secret|hashicorp&#45;vault/deployer&#45;dockercfg&#45;cdspj</text>
</g>
<!-- 3&#45;&gt;10 -->
<g id="edge5" class="edge">
<title>3&#45;&gt;10</title>
<path fill="none" stroke="#000000" d="M2692.6516,-630.4989C2654.7344,-616.5799 2601.536,-597.0514 2561.1823,-582.238"/>
<polygon fill="#000000" stroke="#000000" points="2562.3327,-578.932 2551.7391,-578.7715 2559.9205,-585.5033 2562.3327,-578.932"/>
<text text-anchor="middle" x="2698.327" y="-600.8" font-family="Times,serif" font-size="14.00" fill="#000000">MountableSecret</text>
</g>
<!-- 11 -->
<g id="node12" class="node">
<title>11</title>
<ellipse fill="none" stroke="#000000" cx="2978.327" cy="-561" rx="219.8612" ry="18"/>
<text text-anchor="middle" x="2978.327" y="-557.3" font-family="Times,serif" font-size="14.00" fill="#000000">Secret|hashicorp&#45;vault/deployer&#45;token&#45;crh95</text>
</g>
<!-- 3&#45;&gt;11 -->
<g id="edge6" class="edge">
<title>3&#45;&gt;11</title>
<path fill="none" stroke="#000000" d="M2788.2035,-630.4989C2826.4064,-616.534 2880.0564,-596.9225 2920.6284,-582.0915"/>
<polygon fill="#000000" stroke="#000000" points="2921.9289,-585.3427 2930.1194,-578.6221 2919.5255,-578.7682 2921.9289,-585.3427"/>
<text text-anchor="middle" x="2935.327" y="-600.8" font-family="Times,serif" font-size="14.00" fill="#000000">MountableSecret</text>
</g>
<!-- 6 -->
<g id="node7" class="node">
<title>6</title>
<ellipse fill="none" stroke="#000000" cx="3175.327" cy="-648" rx="213.6622" ry="18"/>
<text text-anchor="middle" x="3175.327" y="-644.3" font-family="Times,serif" font-size="14.00" fill="#000000">Secret|hashicorp&#45;vault/builder&#45;token&#45;qgp6k</text>
</g>
<!-- 8 -->
<g id="node9" class="node">
<title>8</title>
<ellipse fill="none" stroke="#000000" cx="3621.327" cy="-648" rx="213.6622" ry="18"/>
<text text-anchor="middle" x="3621.327" y="-644.3" font-family="Times,serif" font-size="14.00" fill="#000000">Secret|hashicorp&#45;vault/default&#45;token&#45;59mtv</text>
</g>
<!-- 12 -->
<g id="node13" class="node">
<title>12</title>
<ellipse fill="none" stroke="#000000" cx="4073.327" cy="-648" rx="219.8612" ry="18"/>
<text text-anchor="middle" x="4073.327" y="-644.3" font-family="Times,serif" font-size="14.00" fill="#000000">Secret|hashicorp&#45;vault/deployer&#45;token&#45;rp6px</text>
</g>
<!-- 13 -->
<g id="node14" class="node">
<title>13</title>
<ellipse fill="none" stroke="#000000" cx="1028.327" cy="-105" rx="165.1707" ry="18"/>
<text text-anchor="middle" x="1028.327" y="-101.3" font-family="Times,serif" font-size="14.00" fill="#000000">Secret|hashicorp&#45;vault/vault&#45;cert</text>
</g>
<!-- 14 -->
<g id="node15" class="node">
<title>14</title>
<ellipse fill="none" stroke="#000000" cx="4591.327" cy="-648" rx="280.5504" ry="18"/>
<text text-anchor="middle" x="4591.327" y="-644.3" font-family="Times,serif" font-size="14.00" fill="#000000">PersistentVolumeClaim|hashicorp&#45;vault/vault&#45;file&#45;backend</text>
</g>
<!-- 15 -->
<g id="node16" class="node">
<title>15</title>
<ellipse fill="none" stroke="#000000" cx="568.327" cy="-648" rx="216.3616" ry="18"/>
<text text-anchor="middle" x="568.327" y="-644.3" font-family="Times,serif" font-size="14.00" fill="#000000">Pod|hashicorp&#45;vault/vault&#45;5474775bd9&#45;klvst</text>
</g>
<!-- 15&#45;&gt;0 -->
<g id="edge7" class="edge">
<title>15&#45;&gt;0</title>
<path fill="none" stroke="#000000" d="M568.327,-629.6694C568.327,-612.0629 568.327,-584.7135 568.327,-561 568.327,-561 568.327,-561 568.327,-279 568.327,-185.906 1310.5226,-217.3379 1403.327,-210 1417.2388,-208.9 1431.8242,-207.5203 1446.2577,-206.0166"/>
<polygon fill="#000000" stroke="#000000" points="1446.6418,-209.4956 1456.2156,-204.9577 1445.9016,-202.5348 1446.6418,-209.4956"/>
<text text-anchor="middle" x="656.327" y="-416.3" font-family="Times,serif" font-size="14.00" fill="#000000">ExposedThroughService</text>
</g>
<!-- 16 -->
<g id="node17" class="node">
<title>16</title>
<ellipse fill="none" stroke="#000000" cx="259.327" cy="-192" rx="259.1541" ry="18"/>
<text text-anchor="middle" x="259.327" y="-188.3" font-family="Times,serif" font-size="14.00" fill="#000000">PodSpec|Pod|hashicorp&#45;vault/vault&#45;5474775bd9&#45;klvst</text>
</g>
<!-- 15&#45;&gt;16 -->
<g id="edge8" class="edge">
<title>15&#45;&gt;16</title>
<path fill="none" stroke="#000000" d="M489.2493,-631.2281C428.2887,-615.9431 354.327,-591.1795 354.327,-561 354.327,-561 354.327,-561 354.327,-279 354.327,-251.0387 331.6673,-229.6378 308.4814,-215.0587"/>
<polygon fill="#000000" stroke="#000000" points="310.0029,-211.892 299.6155,-209.8057 306.4347,-217.9143 310.0029,-211.892"/>
<text text-anchor="middle" x="386.327" y="-416.3" font-family="Times,serif" font-size="14.00" fill="#000000">Contains</text>
</g>
<!-- 21 -->
<g id="node22" class="node">
<title>21</title>
<ellipse fill="none" stroke="#000000" cx="1092.327" cy="-561" rx="223.6604" ry="18"/>
<text text-anchor="middle" x="1092.327" y="-557.3" font-family="Times,serif" font-size="14.00" fill="#000000">ReplicaSet|hashicorp&#45;vault/vault&#45;5474775bd9</text>
</g>
<!-- 15&#45;&gt;21 -->
<g id="edge9" class="edge">
<title>15&#45;&gt;21</title>
<path fill="none" stroke="#000000" d="M665.3532,-631.8907C755.8387,-616.8673 890.5848,-594.4954 984.421,-578.9157"/>
<polygon fill="#000000" stroke="#000000" points="985.2197,-582.3311 994.5114,-577.2404 984.0731,-575.4256 985.2197,-582.3311"/>
<text text-anchor="middle" x="941.827" y="-600.8" font-family="Times,serif" font-size="14.00" fill="#000000">ManagedByController</text>
</g>
<!-- 16&#45;&gt;2 -->
<g id="edge10" class="edge">
<title>16&#45;&gt;2</title>
<path fill="none" stroke="#000000" d="M322.8205,-174.4786C361.5331,-164.0872 412.1023,-151.0302 457.327,-141 486.6257,-134.502 518.6008,-128.2153 547.9455,-122.7632"/>
<polygon fill="#000000" stroke="#000000" points="548.5897,-126.2035 557.7887,-120.9471 547.3196,-119.3197 548.5897,-126.2035"/>
<text text-anchor="middle" x="555.327" y="-144.8" font-family="Times,serif" font-size="14.00" fill="#000000">ReferencedServiceAccount</text>
</g>
<!-- 16&#45;&gt;9 -->
<g id="edge11" class="edge">
<title>16&#45;&gt;9</title>
<path fill="none" stroke="#000000" d="M259.327,-173.7078C259.327,-143.3436 259.327,-82.3226 259.327,-46.3464"/>
<polygon fill="#000000" stroke="#000000" points="262.8271,-46.0471 259.327,-36.0471 255.8271,-46.0471 262.8271,-46.0471"/>
<text text-anchor="middle" x="315.327" y="-101.3" font-family="Times,serif" font-size="14.00" fill="#000000">MountedSecret</text>
</g>
<!-- 16&#45;&gt;13 -->
<g id="edge12" class="edge">
<title>16&#45;&gt;13</title>
<path fill="none" stroke="#000000" d="M443.4786,-179.3055C471.5625,-177.4639 500.213,-175.6389 527.327,-174 601.743,-169.5019 791.7029,-179.8792 862.327,-156 873.5378,-152.2095 873.5295,-145.8439 884.327,-141 900.1488,-133.9021 917.6027,-128.0483 934.7373,-123.2749"/>
<polygon fill="#000000" stroke="#000000" points="936.0195,-126.555 944.7743,-120.5881 934.2093,-119.7931 936.0195,-126.555"/>
<text text-anchor="middle" x="940.327" y="-144.8" font-family="Times,serif" font-size="14.00" fill="#000000">MountedSecret</text>
</g>
<!-- 17 -->
<g id="node18" class="node">
<title>17</title>
<ellipse fill="none" stroke="#000000" cx="1318.327" cy="-474" rx="168.1703" ry="18"/>
<text text-anchor="middle" x="1318.327" y="-470.3" font-family="Times,serif" font-size="14.00" fill="#000000">Deployment|hashicorp&#45;vault/vault</text>
</g>
<!-- 18 -->
<g id="node19" class="node">
<title>18</title>
<ellipse fill="none" stroke="#000000" cx="1874.327" cy="-366" rx="250.4558" ry="18"/>
<text text-anchor="middle" x="1874.327" y="-362.3" font-family="Times,serif" font-size="14.00" fill="#000000">DeploymentSpec|Deployment|hashicorp&#45;vault/vault</text>
</g>
<!-- 17&#45;&gt;18 -->
<g id="edge13" class="edge">
<title>17&#45;&gt;18</title>
<path fill="none" stroke="#000000" d="M1399.7696,-458.1802C1500.0965,-438.6923 1670.3496,-405.6215 1777.3337,-384.8404"/>
<polygon fill="#000000" stroke="#000000" points="1778.0152,-388.2736 1787.1643,-382.9309 1776.6804,-381.402 1778.0152,-388.2736"/>
<text text-anchor="middle" x="1711.327" y="-416.3" font-family="Times,serif" font-size="14.00" fill="#000000">Contains</text>
</g>
<!-- 17&#45;&gt;21 -->
<g id="edge14" class="edge">
<title>17&#45;&gt;21</title>
<path fill="none" stroke="#000000" d="M1315.0719,-491.9985C1312.0975,-503.1842 1306.5379,-516.9252 1296.327,-525 1285.8525,-533.2832 1264.2882,-539.7902 1238.9496,-544.8543"/>
<polygon fill="#000000" stroke="#000000" points="1238.243,-541.4258 1229.0687,-546.7253 1239.5453,-548.3036 1238.243,-541.4258"/>
<text text-anchor="middle" x="1351.827" y="-513.8" font-family="Times,serif" font-size="14.00" fill="#000000">Deployment</text>
</g>
<!-- 19 -->
<g id="node20" class="node">
<title>19</title>
<ellipse fill="none" stroke="#000000" cx="2053.327" cy="-279" rx="336.8403" ry="18"/>
<text text-anchor="middle" x="2053.327" y="-275.3" font-family="Times,serif" font-size="14.00" fill="#000000">PodTemplateSpec|DeploymentSpec|Deployment|hashicorp&#45;vault/vault</text>
</g>
<!-- 18&#45;&gt;19 -->
<g id="edge15" class="edge">
<title>18&#45;&gt;19</title>
<path fill="none" stroke="#000000" d="M1910.9823,-348.1843C1938.8831,-334.6236 1977.4587,-315.8745 2007.4149,-301.3148"/>
<polygon fill="#000000" stroke="#000000" points="2008.9496,-304.4604 2016.4136,-296.9411 2005.8896,-298.1647 2008.9496,-304.4604"/>
<text text-anchor="middle" x="2007.327" y="-318.8" font-family="Times,serif" font-size="14.00" fill="#000000">Contains</text>
</g>
<!-- 19&#45;&gt;0 -->
<g id="edge16" class="edge">
<title>19&#45;&gt;0</title>
<path fill="none" stroke="#000000" d="M1955.4333,-261.7596C1867.769,-246.3208 1740.0602,-223.8295 1653.5401,-208.5922"/>
<polygon fill="#000000" stroke="#000000" points="1653.9174,-205.1048 1643.4619,-206.8173 1652.7032,-211.9987 1653.9174,-205.1048"/>
<text text-anchor="middle" x="1924.327" y="-231.8" font-family="Times,serif" font-size="14.00" fill="#000000">ExposedThroughService</text>
</g>
<!-- 20 -->
<g id="node21" class="node">
<title>20</title>
<ellipse fill="none" stroke="#000000" cx="2104.327" cy="-192" rx="379.6327" ry="18"/>
<text text-anchor="middle" x="2104.327" y="-188.3" font-family="Times,serif" font-size="14.00" fill="#000000">PodSpec|PodTemplateSpec|DeploymentSpec|Deployment|hashicorp&#45;vault/vault</text>
</g>
<!-- 19&#45;&gt;20 -->
<g id="edge17" class="edge">
<title>19&#45;&gt;20</title>
<path fill="none" stroke="#000000" d="M2063.8942,-260.9735C2071.0059,-248.8418 2080.5102,-232.6287 2088.5171,-218.9698"/>
<polygon fill="#000000" stroke="#000000" points="2091.7355,-220.4004 2093.7733,-210.0034 2085.6966,-216.8603 2091.7355,-220.4004"/>
<text text-anchor="middle" x="2114.327" y="-231.8" font-family="Times,serif" font-size="14.00" fill="#000000">Contains</text>
</g>
<!-- 20&#45;&gt;2 -->
<g id="edge18" class="edge">
<title>20&#45;&gt;2</title>
<path fill="none" stroke="#000000" d="M1846.4258,-178.7663C1538.0412,-162.7657 1040.2225,-136.3284 854.327,-123 836.1403,-121.696 817.0536,-120.1922 798.1572,-118.6208"/>
<polygon fill="#000000" stroke="#000000" points="798.2514,-115.1165 787.9937,-117.7678 797.6659,-122.092 798.2514,-115.1165"/>
<text text-anchor="middle" x="1512.327" y="-144.8" font-family="Times,serif" font-size="14.00" fill="#000000">ReferencedServiceAccount</text>
</g>
<!-- 20&#45;&gt;13 -->
<g id="edge19" class="edge">
<title>20&#45;&gt;13</title>
<path fill="none" stroke="#000000" d="M2002.2067,-174.6076C1932.11,-163.3085 1836.8348,-149.2046 1752.327,-141 1563.9112,-122.7072 1346.956,-113.4824 1200.0486,-108.9848"/>
<polygon fill="#000000" stroke="#000000" points="1200.1354,-105.4859 1190.0342,-108.6822 1199.9239,-112.4827 1200.1354,-105.4859"/>
<text text-anchor="middle" x="1925.327" y="-144.8" font-family="Times,serif" font-size="14.00" fill="#000000">MountedSecret</text>
</g>
<!-- 21&#45;&gt;17 -->
<g id="edge20" class="edge">
<title>21&#45;&gt;17</title>
<path fill="none" stroke="#000000" d="M1102.3462,-542.9003C1109.512,-531.6731 1120.1957,-517.9237 1133.327,-510 1146.1007,-502.2921 1173.2487,-495.5075 1202.9094,-489.9665"/>
<polygon fill="#000000" stroke="#000000" points="1203.8287,-493.3571 1213.0474,-488.1355 1202.5846,-486.4686 1203.8287,-493.3571"/>
<text text-anchor="middle" x="1212.827" y="-513.8" font-family="Times,serif" font-size="14.00" fill="#000000">ManagedByController</text>
</g>
<!-- 22 -->
<g id="node23" class="node">
<title>22</title>
<ellipse fill="none" stroke="#000000" cx="1049.327" cy="-420" rx="299.7469" ry="18"/>
<text text-anchor="middle" x="1049.327" y="-416.3" font-family="Times,serif" font-size="14.00" fill="#000000">ReplicaSetSpec|ReplicaSet|hashicorp&#45;vault/vault&#45;5474775bd9</text>
</g>
<!-- 21&#45;&gt;22 -->
<g id="edge21" class="edge">
<title>21&#45;&gt;22</title>
<path fill="none" stroke="#000000" d="M1062.8735,-543.0797C1056.9962,-538.0165 1051.6237,-531.9569 1048.327,-525 1036.922,-500.9327 1038.8598,-470.139 1042.6259,-448.1342"/>
<polygon fill="#000000" stroke="#000000" points="1046.1028,-448.5894 1044.5711,-438.1059 1039.2309,-447.2564 1046.1028,-448.5894"/>
<text text-anchor="middle" x="1080.327" y="-513.8" font-family="Times,serif" font-size="14.00" fill="#000000">Contains</text>
</g>
<!-- 23 -->
<g id="node24" class="node">
<title>23</title>
<ellipse fill="none" stroke="#000000" cx="1015.327" cy="-279" rx="386.1315" ry="18"/>
<text text-anchor="middle" x="1015.327" y="-275.3" font-family="Times,serif" font-size="14.00" fill="#000000">PodTemplateSpec|ReplicaSetSpec|ReplicaSet|hashicorp&#45;vault/vault&#45;5474775bd9</text>
</g>
<!-- 22&#45;&gt;23 -->
<g id="edge22" class="edge">
<title>22&#45;&gt;23</title>
<path fill="none" stroke="#000000" d="M1044.9517,-401.8554C1039.1628,-377.8485 1028.8995,-335.2861 1022.1037,-307.1035"/>
<polygon fill="#000000" stroke="#000000" points="1025.4322,-305.9759 1019.6855,-297.075 1018.6273,-307.6168 1025.4322,-305.9759"/>
<text text-anchor="middle" x="1072.327" y="-362.3" font-family="Times,serif" font-size="14.00" fill="#000000">Contains</text>
</g>
<!-- 23&#45;&gt;0 -->
<g id="edge23" class="edge">
<title>23&#45;&gt;0</title>
<path fill="none" stroke="#000000" d="M1123.4543,-261.7076C1221.3144,-246.0572 1364.2931,-223.1911 1459.4931,-207.9661"/>
<polygon fill="#000000" stroke="#000000" points="1460.0949,-211.4144 1469.4166,-206.379 1458.9894,-204.5022 1460.0949,-211.4144"/>
<text text-anchor="middle" x="1408.327" y="-231.8" font-family="Times,serif" font-size="14.00" fill="#000000">ExposedThroughService</text>
</g>
<!-- 24 -->
<g id="node25" class="node">
<title>24</title>
<ellipse fill="none" stroke="#000000" cx="965.327" cy="-192" rx="428.9239" ry="18"/>
<text text-anchor="middle" x="965.327" y="-188.3" font-family="Times,serif" font-size="14.00" fill="#000000">PodSpec|PodTemplateSpec|ReplicaSetSpec|ReplicaSet|hashicorp&#45;vault/vault&#45;5474775bd9</text>
</g>
<!-- 23&#45;&gt;24 -->
<g id="edge24" class="edge">
<title>23&#45;&gt;24</title>
<path fill="none" stroke="#000000" d="M1004.967,-260.9735C997.9947,-248.8418 988.6768,-232.6287 980.8269,-218.9698"/>
<polygon fill="#000000" stroke="#000000" points="983.6912,-216.9295 975.6738,-210.0034 977.6221,-220.4175 983.6912,-216.9295"/>
<text text-anchor="middle" x="1025.327" y="-231.8" font-family="Times,serif" font-size="14.00" fill="#000000">Contains</text>
</g>
<!-- 24&#45;&gt;2 -->
<g id="edge25" class="edge">
<title>24&#45;&gt;2</title>
<path fill="none" stroke="#000000" d="M765.4079,-176.0232C716.5697,-170.4592 675.5511,-163.6644 666.327,-156 659.4016,-150.2455 655.4274,-141.5265 653.1622,-132.9169"/>
<polygon fill="#000000" stroke="#000000" points="656.5839,-132.1774 651.2136,-123.0444 649.7163,-133.5329 656.5839,-132.1774"/>
<text text-anchor="middle" x="764.327" y="-144.8" font-family="Times,serif" font-size="14.00" fill="#000000">ReferencedServiceAccount</text>
</g>
<!-- 24&#45;&gt;13 -->
<g id="edge26" class="edge">
<title>24&#45;&gt;13</title>
<path fill="none" stroke="#000000" d="M984.8707,-173.806C990.2053,-168.3492 995.7663,-162.1679 1000.327,-156 1005.7656,-148.6448 1010.8604,-140.1111 1015.174,-132.1532"/>
<polygon fill="#000000" stroke="#000000" points="1018.3324,-133.6661 1019.8527,-123.1809 1012.1256,-130.4294 1018.3324,-133.6661"/>
<text text-anchor="middle" x="1066.327" y="-144.8" font-family="Times,serif" font-size="14.00" fill="#000000">MountedSecret</text>
</g>
<!-- 25 -->
<g id="node26" class="node">
<title>25</title>
<ellipse fill="none" stroke="#000000" cx="1559.327" cy="-279" rx="139.9756" ry="18"/>
<text text-anchor="middle" x="1559.327" y="-275.3" font-family="Times,serif" font-size="14.00" fill="#000000">Route|hashicorp&#45;vault/vault</text>
</g>
<!-- 25&#45;&gt;0 -->
<g id="edge27" class="edge">
<title>25&#45;&gt;0</title>
<path fill="none" stroke="#000000" d="M1559.327,-260.9735C1559.327,-249.1918 1559.327,-233.5607 1559.327,-220.1581"/>
<polygon fill="#000000" stroke="#000000" points="1562.8271,-220.0033 1559.327,-210.0034 1555.8271,-220.0034 1562.8271,-220.0033"/>
<text text-anchor="middle" x="1641.327" y="-231.8" font-family="Times,serif" font-size="14.00" fill="#000000">ExposedThroughRoute</text>
</g>
</g>
</svg>
